<?xml version="1.0" encoding="UTF-8"?>
<svg width="80" height="80" version="1.1" viewBox="0 0 75 75" xmlns="http://www.w3.org/2000/svg">
 <g transform="translate(-47.667 -1954.3)" fill="#586e75">
  <path transform="matrix(.9375 0 0 .9375 47.667 1854.9)" d="m32 124.97a16 16 0 0 0-16 16 16 16 0 0 0 8.2461 13.975c0.27256 2.3033-0.81626 4.9519-5.1406 7.4531 6.6262-2.0087 11.233-3.7828 14.432-5.5156a18.75 18.75 0 0 1-0.82031-1.1016c-0.32462-0.46575-0.63497-0.94391-0.91992-1.4395-0.43558-0.75748-0.81917-1.5462-1.1484-2.3535a11.11 11.11 0 0 1-9.7578-11.018 11.11 11.11 0 0 1 11.109-11.109 11.11 11.11 0 0 1 3.9863 0.75196 18.75 18.75 0 0 1 4.8652-2.9609 16 16 0 0 0-8.8516-2.6816z" fill-rule="evenodd"/>
  <path transform="matrix(.9375 0 0 .9375 47.667 1854.9)" d="m48 128.97a16 16 0 0 0-16 16 16 16 0 0 0 3.0254 9.3379c0.01708 0.028 0.02116 0.0536 0.04102 0.082 2.2012 3.1491 5.2537 7.4079 22.482 12.631-3.6812-2.1292-4.5711-4.6274-4.1289-7.0176a16 16 0 0 0 10.58-15.033 16 16 0 0 0-16-16zm0 4.8906a11.11 11.11 0 0 1 11.109 11.109 11.11 11.11 0 0 1-11.109 11.109 11.11 11.11 0 0 1-11.109-11.109 11.11 11.11 0 0 1 11.109-11.109z" color="#000000" color-rendering="auto" image-rendering="auto" shape-rendering="auto" solid-color="#000000" style="isolation:auto;mix-blend-mode:normal"/>
 </g>
</svg>
