<?xml version="1.0" encoding="UTF-8" standalone="no"?>
<svg xmlns:rdf="http://www.w3.org/1999/02/22-rdf-syntax-ns#" xmlns="http://www.w3.org/2000/svg" height="75" width="75" version="1.1" xmlns:cc="http://creativecommons.org/ns#" xmlns:dc="http://purl.org/dc/elements/1.1/" viewBox="0 0 75.000002 75.000001">
 <g transform="translate(-47.667 -1555.6)">
  <g fill="#586e75" transform="matrix(-.39234 0 0 .39234 113.66 1567.9)">
   <path fill="#586e75" d="m116.04 49.25c-1.77 0.48-2.65 1.88-2.88 2.92-0.28 1.25-0.38 3.09-0.38 3.09s-8.53-0.42-10.66 0.55c-1.61 0.73-2.03 1.8-2.05 3.85 0 0.1 0.02 0.22 0.03 0.33-1.33 0.15-2.35 0.2-3.22 0.06-1.14-0.31-1.8-1.07-2.16-1.61-0.51-0.76-0.97-1.79-0.97-1.79h-0.01c-2.65-5.42-6.28-8.7-8.55-11.81-2.27-3.13-8.55-11.71-9.25-15.96-1.26-7.64-2.67-15.95-8.5-19.99-4.74-3.28-10.95-2.04-12.23-1.87-3 0.4-8.2 2.71-9.57 10.03-2.93 15.5 2.13 25.1 1.5 26.24-0.14 0.26-1.58-0.05-3.27-0.49-2.09-0.54-11.31-1.44-13.85-1.24-4.15 0.33-10.63 3.92-11.68 11.28-0.69 4.81 0.7 8.14 2.11 9.91 0.75 0.94 0.85 1.82 0.19 2.57-1.43 1.62-3.66 4.9-3.4 9.46 0.24 4.34 3 7.35 4.79 8.86 0.89 0.75 1.17 1.72 0.71 2.75-0.9 2.05-2.1 5.83-1.11 10.13 0.93 4.1 4.21 6.32 6.18 7.32 0.92 0.46 1.35 1.27 1.15 2.26-0.32 1.64-0.57 4.3 0.37 6.89 1.9 5.27 7.84 8 13.8 8.31 6.38 0.33 11.43-1.1 22-2.98 6.18-1.1 13.89-4.53 20.19-11.31l0.02 0.03c3.09-2.98 3.45-4.3 7.85-6.15 1.7-0.71 3.51-1 5.11-1.1-0.09 0.61-0.14 0.94-0.14 0.94s-0.5 2.76 2.06 3.47c3.68 1.01 9.64 1.76 9.64 1.76s0.09 3.05 0.64 3.62c0.97 1.03 5.16 1.23 6.82 1.38 3.02 0.27 10.57 0.4 10.57 0.4l0.12-62.5c-0.01 0.03-9.01-0.41-11.97 0.39zm-91.3 4.89c0.58-3.96 2.21-6.61 7.31-6.61 2.79 0 15.08 2.38 17.83 3.03 2.32 0.56 4.89 2.88 4.64 5.78-0.23 2.57-1.73 5.19-5.27 5.71-3.53 0.53-15.38-0.86-18.59-1.18-2.95-0.3-6.53-2.34-5.92-6.73zm-1.15 20.07c0.08-4 2.42-7.63 7.54-7.58 1.85 0.02 16.47 0.64 18.86 0.64s5.21 2.27 5.31 5.17c0.09 2.58-1.1 5.36-4.54 6.3-3.44 0.95-17.26 1.35-20.48 1.42-2.97 0.07-6.79-1.52-6.69-5.95zm3.73 19.36c-0.31-3.75 1.54-7.36 6.32-7.8s16.03-1.25 17.84-1.38c3.42-0.24 4.85 2.15 5.31 4.53 0.45 2.38-0.65 5.44-3.78 6.65-3.12 1.21-15.33 3.41-18.13 3.55-2.77 0.13-7.25-1.4-7.56-5.55zm29.57 18.13c-2.78 1.33-11.37 3.39-13.91 3.71-2.55 0.32-7.61-0.81-8.19-4.59-0.54-3.41 0.9-6.85 5.24-7.58 4.35-0.73 12.47-2.02 14.13-2.27 3.11-0.46 4.58 1.63 5.17 3.78 0.59 2.14 0.35 5.63-2.44 6.95zm13.55-2.16c-2.28 0.9-6.03 1.18-6.41-0.7-0.3-1.5 1.4-5.25 1.06-7.48s-2.58-5-4.31-5.79c0.98-0.93 3.15-5.65 2.76-8.6s-3.65-7.11-3.65-7.11c1.9-1.58 1.63-5.92 2.82-4.78 1.18 1.14 8.78 6.73 10.13 4.51s-2.12-3.8-4.41-8.34c-2.29-4.53-3.13-12.61-3.13-12.61-12.39-16.24-13.21-25.68-13.3-32.27-0.07-5.7 1.19-11.08 8.48-11.17 7.21-0.09 6.91 7.55 9.3 19.29 1.63 8 10.97 14.73 16.59 23.77 0.42 0.66 0.8 1.33 1.17 2l0.02-0.15c1.19 1.85 2.46 3.68 4.3 5.32 1.39 0.99 3.25 1.4 4.83 1.55 0.27 0.03 0.57 0.06 0.83 0.07 1.06 0.04 2.08 0.04 2.94 0.02 0.04 2.87-0.03 6.79-0.35 13.11-0.25 5.14-0.61 9.45-0.97 12.8-1.47 0.04-3.28 0.17-5.36 0.49-0.08 0.01-0.15 0.03-0.22 0.05-4.67 0.81-8.88 4.67-10.62 6.47l-0.16 0.05v-0.01c-3.59 4.72-7.98 7.81-12.34 9.51zm42.31-29.53c-0.43 12.48-1.41 20.01-1.41 20.01s-4.17-0.82-5.53-1.34c-0.95-0.36-0.75-1.75-0.75-1.75s0.44-7.06 0.89-16.97c0.39-8.3 0.46-17.17 0.48-17.47 0.03-0.82 0.23-1.24 0.92-1.52 0.94-0.36 6.03-0.25 6.03-0.25s-0.19 6.88-0.63 19.29z"/>
  </g>
 </g>
</svg>
