<?xml version="1.0" encoding="UTF-8" standalone="no"?>
<svg xmlns:rdf="http://www.w3.org/1999/02/22-rdf-syntax-ns#" xmlns="http://www.w3.org/2000/svg" height="75" width="75" version="1.1" xmlns:cc="http://creativecommons.org/ns#" xmlns:dc="http://purl.org/dc/elements/1.1/" viewBox="0 0 75.000002 75.000001">
 <g transform="translate(-47.667 -1155.6)">
  <path d="m37.225 21.701c-5.394 0.187-9.539 3.301-10.211 3.926-0.978 0.908-0.601 1.601 1.83 1.426 2.392-0.171 6.086 1.404 6.777 2.127-2.932 3.533-4.899 7.808-6.092 10.976-3.759 0.35-7.608-2.93-11.338-1.515-2.067 0.747-4.17 4.145-2.699 6.275 1.699 2.578 5.78 1.365 7.672-0.227-0.996 1.698-1.989 3.735-1.303 5.758 0.743 2.081 3.334 3.864 5.284 2.215 3.226-2.667-0.54-9.522 2.66-12.123 0.463 0.04 2.657 0.217 8.326 0.318 0.47 0.009 0.968-0.005 1.478-0.031-1.232 2.085-3.486 5.671-2.939 6.502 0.633 0.977 9.583-3.941 10.521-7.232 0.058-0.204 0.081-0.382 0.075-0.539 0.662-0.171 1.326-0.339 1.968-0.534 0.1 1.37 0.354 3.589 1.059 4.379 0.853 0.96 2.928-4.023 3.412-6.037 1.686-0.763 3.041-1.581 3.785-2.383 2.672-2.875 6.027-9.383-6.537-11.912-2.497-0.502-4.749-0.382-6.779 0.174-2.421-1.217-4.786-1.618-6.949-1.543z" transform="translate(47.667 1155.6)" fill="#586e75"/>
 </g>
</svg>
