<?xml version="1.0" encoding="UTF-8" standalone="no"?>
<svg xmlns:rdf="http://www.w3.org/1999/02/22-rdf-syntax-ns#" xmlns="http://www.w3.org/2000/svg" height="75" width="75" version="1.1" xmlns:cc="http://creativecommons.org/ns#" xmlns:dc="http://purl.org/dc/elements/1.1/" viewBox="0 0 75.000002 75.000001">
 <g transform="translate(-47.667 -1155.6)">
  <g transform="matrix(1.3836 0 0 1.3836 103.09 -417.51)">
   <path d="m-4.5272 1164.3s0.0702 3.1516 0.81691 3.9894c0.7463 0.8396 2.8116-4.6597 2.5316-4.9652-0.27997-0.3048-3.3485 0.9758-3.3485 0.9758" fill="#839496"/>
   <path d="m-7.4322 1154.1c-6.3785-3.778-12.396 0.6852-13.103 1.3422-0.70689 0.6565-0.4335 1.1583 1.3231 1.0315 1.7557-0.1255 4.4918 1.0526 4.9294 1.563 0.44088 0.5113 6.8501-3.9367 6.8501-3.9367" fill="#839496"/>
   <path d="m-18.816 1166.2c1.8497-5.0186 6.5-14.433 15.582-12.605 9.0804 1.8278 6.6568 6.5313 4.7258 8.6093-1.9306 2.078-9.4199 4.3286-13.992 4.2456-4.571-0.082-6.3165-0.2499-6.3165-0.2499" fill="#586e75"/>
   <path d="m-0.70016 1157.9c-0.0624 1.5779-1.3842 2.8081-2.954 2.7449-1.5698-0.061-2.7906-1.3916-2.7286-2.9692 0.0612-1.5787 1.3834-2.8088 2.9532-2.7457 1.5694 0.062 2.7906 1.3913 2.7295 2.97" fill="#fff"/>
   <path d="m-1.2752 1157.2c-0.0324 0.8098-0.70977 1.4407-1.5123 1.4085-0.80336-0.032-1.4298-0.7136-1.3998-1.5221 0.0337-0.8098 0.71018-1.4395 1.514-1.4073 0.80377 0.032 1.4302 0.7135 1.3982 1.5209" fill="#073642"/>
   <path d="m-17.796 1165.8c-3.5521 1.4102-0.11043 7.0861-2.6453 9.1815-1.4093 1.1918-3.2816-0.097-3.8181-1.601-0.49589-1.4623 0.22167-2.9336 0.94129-4.1602-1.3674 1.1502-4.3165 2.0261-5.5443 0.1628-1.0634-1.5395 0.4573-3.9944 1.9516-4.5346 3.0685-1.1634 6.2475 2.0722 9.3173 0.8271 0.0796-0.081 0.11987-0.1234 0.20074-0.1234" fill="#586e75"/>
   <path d="m-11.009 1165.7c-0.63136 1.1934-3.0094 4.7233-2.5472 5.4262 0.4573 0.7057 6.9253-2.8478 7.6038-5.2263 0.67487-2.3787-5.0566-0.1999-5.0566-0.1999" fill="#839496"/>
  </g>
 </g>
</svg>
