<?xml version="1.0" encoding="UTF-8" standalone="no"?>
<svg xmlns:rdf="http://www.w3.org/1999/02/22-rdf-syntax-ns#" xmlns="http://www.w3.org/2000/svg" height="75" width="75" version="1.1" xmlns:cc="http://creativecommons.org/ns#" xmlns:dc="http://purl.org/dc/elements/1.1/" viewBox="0 0 75.000004 75.000004">
 <g transform="translate(0 -977.36)">
  <g fill="#586e75" transform="translate(353.02 422.5)">
   <path d="m-334.18 567.36-6.3438 6.3457 11.154 11.154-11.154 11.156 6.3438 6.3438 11.156-11.154 4.6113 4.6113a17.5 17.5 0 0 1 6.1602 -6.5293l-4.4277-4.4277 11.156-11.154-6.3457-6.3457-11.154 11.156-11.156-11.156z"/>
   <path d="m-305.19 590.93v13.888h4.1665v-13.888h-4.1665zm-4.0845 3.1087a12.499 12.499 0 0 0 -5.8245 14.062 12.499 12.499 0 0 0 12.074 9.2635 12.499 12.499 0 0 0 12.073 -9.2635 12.499 12.499 0 0 0 -5.8234 -14.062l-2.4332 4.2179a7.6386 7.6386 0 0 1 3.8221 6.6081 7.6386 7.6386 0 0 1 -7.6386 7.6385 7.6386 7.6386 0 0 1 -7.6391 -7.6385 7.6386 7.6386 0 0 1 3.824 -6.6081l-2.4346-4.2174z"/>
  </g>
 </g>
</svg>
