<?xml version="1.0" encoding="UTF-8" standalone="no"?>
<svg xmlns:rdf="http://www.w3.org/1999/02/22-rdf-syntax-ns#" xmlns="http://www.w3.org/2000/svg" height="75" width="75" version="1.1" xmlns:cc="http://creativecommons.org/ns#" xmlns:dc="http://purl.org/dc/elements/1.1/" viewBox="0 0 75.000004 75.000004">
 <g transform="translate(0 -977.36)">
  <path d="m33.603 991.07v24.999h7.4998v-24.999h-7.4998zm-7.3523 5.5957a22.499 22.499 0 0 0 -10.484 25.312 22.499 22.499 0 0 0 21.734 16.674 22.499 22.499 0 0 0 21.732 -16.674 22.499 22.499 0 0 0 -10.482 -25.312l-4.3799 7.5923a13.75 13.75 0 0 1 6.8798 11.895 13.75 13.75 0 0 1 -13.75 13.75 13.75 13.75 0 0 1 -13.751 -13.75 13.75 13.75 0 0 1 6.8833 -11.895l-4.3824-7.5915z" fill="#586e75"/>
 </g>
</svg>
