<?xml version="1.0" encoding="UTF-8" standalone="no"?>
<svg xmlns:rdf="http://www.w3.org/1999/02/22-rdf-syntax-ns#" xmlns="http://www.w3.org/2000/svg" height="75" width="75" version="1.1" xmlns:cc="http://creativecommons.org/ns#" xmlns:dc="http://purl.org/dc/elements/1.1/" viewBox="0 0 75.000004 75.000004">
 <g transform="translate(0 -977.36)">
  <g fill="#586e75" transform="translate(253.02 422.5)">
   <g transform="matrix(.88890 0 0 .88890 -917.85 150.14)">
    <path d="m-213.66 569.03-1.5312 4.1855a15.556 15.556 0 0 1 10.166 13.566 17.5 17.5 0 0 1 2.002 -0.13672 17.5 17.5 0 0 1 2.4531 0.19531 20 20 0 0 0 -13.09 -17.811zm-25.641 11.914a20 20 0 0 0 -1.1445 5.0938 20 20 0 0 0 18.152 21.691 20 20 0 0 0 2.1758 0.0664 17.5 17.5 0 0 1 -0.40625 -3.6504 17.5 17.5 0 0 1 0.0391 -0.79297 15.556 15.556 0 0 1 -1.416 -0.0488 15.556 15.556 0 0 1 -14.119 -16.871 15.556 15.556 0 0 1 0.90234 -3.957l-4.1836-1.5312z" transform="matrix(1.125 0 0 1.125 1032.6 -168.91)"/>
    <rect transform="matrix(-.63850 .76962 -.76962 -.63850 0 0)" height="25" width="4" y="-920.62" x="-123.96"/>
    <circle cy="472.36" cx="784.48" r="3"/>
   </g>
   <path d="m-205.19 590.93v13.888h4.1665v-13.888h-4.1665zm-4.0845 3.1087a12.499 12.499 0 0 0 -5.8245 14.062 12.499 12.499 0 0 0 12.074 9.2635 12.499 12.499 0 0 0 12.073 -9.2635 12.499 12.499 0 0 0 -5.8234 -14.062l-2.4332 4.2179a7.6386 7.6386 0 0 1 3.8221 6.6081 7.6386 7.6386 0 0 1 -7.6386 7.6385 7.6386 7.6386 0 0 1 -7.6391 -7.6385 7.6386 7.6386 0 0 1 3.824 -6.6081l-2.4346-4.2174z"/>
  </g>
 </g>
</svg>
