<?xml version="1.0" encoding="UTF-8" standalone="no"?>
<svg xmlns:rdf="http://www.w3.org/1999/02/22-rdf-syntax-ns#" xmlns="http://www.w3.org/2000/svg" height="75" width="75" version="1.1" xmlns:cc="http://creativecommons.org/ns#" xmlns:dc="http://purl.org/dc/elements/1.1/" viewBox="0 0 75.000002 75.000001">
 <g transform="translate(-47.667 -955.55)">
  <path fill="#586e75" d="m64.216 974.3c-1.5859 1.0596-1.6328 3.6572-1.4551 5.459 0.3588 2.9003 1.7952 5.534 3.6817 7.7227 1.1901 2.1596-0.011 4.9615 1.4375 7.0391 1.3968 1.1072 3.3003 1.3038 5.0117 1.6035 2.7633 0.1502 5.6718 0.16686 8.1386 1.6113 1.6084 0.81219 2.9743 2.7848 5.0059 2.0879 1.6716-0.73133 2.9203-2.2474 4.7305-2.7559 2.7141-1.1053 5.7027-0.6104 8.5058-1.2422v15.967h3v-17.182c0.7674-0.83819 1.0628-2.131 0.9922-3.3281 0.001-1.7719 0.084-3.6795 1.5215-4.9453 2.157-2.8327 3.5138-6.6475 2.5352-10.184-0.1235-1.3468-1.3273-2.6146-2.2657-1.0332-2.5742 2.1779-6.143 2.0946-9.3144 2.0098-2.7982 0.104-5.0148 1.9804-7.0664 3.6719-1.3191 0.93866-2.8688 2.4154-4.6094 1.5879-2.9842-1.5136-5.1137-4.6171-8.5859-5.1524-2.2515-0.2768-4.5676 0.1634-6.7911-0.457-1.6112-0.3484-3.0602-1.2236-4.2226-2.377l-0.25-0.1035zm5.7148 7.8985c2.0885 0.83676 4.3471 0.92353 6.5625 1.0762 2.7189 0.32158 5.1754 2.8124 5.2246 5.584-0.7029 2.5289-4.1615 1.7638-6.0488 1.1738-3.1717-0.97506-4.283-4.4049-6.168-6.7852-0.3482-0.37393-0.069-1.0035 0.4297-1.0488zm30.475 0c1.5522 1.036-1.2444 2.7215-1.5273 3.9746-1.1752 2.1656-3.1477 3.9537-5.6777 4.2402-1.7657 0.57962-5.1872 0.12387-4.5157-2.4336 0.6497-2.8271 3.4318-4.9418 6.3379-4.8164 1.8474-0.002 3.6503-0.34474 5.3828-0.96485z"/>
 </g>
</svg>
