<?xml version="1.0" encoding="UTF-8" standalone="no"?>
<svg xmlns:rdf="http://www.w3.org/1999/02/22-rdf-syntax-ns#" xmlns="http://www.w3.org/2000/svg" height="75" width="75" version="1.1" xmlns:cc="http://creativecommons.org/ns#" xmlns:dc="http://purl.org/dc/elements/1.1/" viewBox="0 0 75.000002 75.000001">
 <g transform="translate(-47.667 -1255.6)">
  <path style="color-rendering:auto;text-decoration-color:#000000;color:#000000;isolation:auto;mix-blend-mode:normal;shape-rendering:auto;solid-color:#000000;block-progression:tb;text-decoration-line:none;text-decoration-style:solid;image-rendering:auto;white-space:normal;text-indent:0;text-transform:none" d="m102.43 1273.3v0.012h5.2372v34.315h-7.8128c-5.3049 0.014-9.605 0.2702-12.975 3.556l-1.71 1.6679-1.7119-1.6679c-3.3714-3.2869-7.6708-3.547-12.973-3.556h-7.8166v-34.315h5.2392v-0.012h2.4511c4.9028 0 10.279 0.3833 14.812 3.7283 4.5327-3.3435 9.9086-3.7237 14.808-3.7283zm-3.6649 4.9117h1.0874c-5.3022 0.01-9.6025 0.2695-12.973 3.556l-1.71 1.6679-1.7119-1.6679c-3.3716-3.2871-7.6706-3.5514-12.97-3.556h-2.9183v24.511h0.33702v-0.012h2.453c4.9007 0 10.276 0.3848 14.81 3.7302 4.5334-3.3438 9.9088-3.7214 14.806-3.7302-0.40334 0-0.80671 0.01-1.21 0.018v-24.513zm-15.939 7.0432v2.9413h-11.519v-2.9413zm0 5.7337v2.9412h-11.519v-2.9412zm0 5.7336v2.9412h-11.519v-2.9412z" fill="#586e75"/>
 </g>
</svg>
