<?xml version="1.0" encoding="UTF-8" standalone="no"?>
<svg xmlns:rdf="http://www.w3.org/1999/02/22-rdf-syntax-ns#" xmlns="http://www.w3.org/2000/svg" height="75" width="75" version="1.1" xmlns:cc="http://creativecommons.org/ns#" xmlns:dc="http://purl.org/dc/elements/1.1/" viewBox="0 0 75.000002 75.000001">
 <g transform="translate(-47.667 -855.55)">
  <path d="m79.168 870.55a16.5 16.5 0 0 0 -16.5 16.5 16.5 16.5 0 0 0 16.5 16.5 16.5 16.5 0 0 0 9.752 -3.2129l15.213 15.213 3.5352-3.5352-15.213-15.213a16.5 16.5 0 0 0 3.2129 -9.752 16.5 16.5 0 0 0 -16.5 -16.5zm0 4a12.5 12.5 0 0 1 12.5 12.5 12.5 12.5 0 0 1 -12.5 12.5 12.5 12.5 0 0 1 -12.5 -12.5 12.5 12.5 0 0 1 12.5 -12.5z" fill="#586e75"/>
 </g>
</svg>
