<?xml version="1.0" encoding="UTF-8" standalone="no"?>
<svg xmlns:rdf="http://www.w3.org/1999/02/22-rdf-syntax-ns#" xmlns="http://www.w3.org/2000/svg" height="75" width="75" version="1.1" xmlns:cc="http://creativecommons.org/ns#" xmlns:dc="http://purl.org/dc/elements/1.1/" viewBox="0 0 75.000002 75.000001">
 <g transform="translate(52.333 44.45)">
  <path style="color-rendering:auto;text-decoration-color:#000000;color:#000000;isolation:auto;mix-blend-mode:normal;shape-rendering:auto;solid-color:#000000;block-progression:tb;text-decoration-line:none;text-decoration-style:solid;image-rendering:auto;white-space:normal;text-indent:0;text-transform:none" d="m-35.332-29.45a2.0002 2.0002 0 0 0 -2 2v41a2.0002 2.0002 0 0 0 2 2h41a2.0002 2.0002 0 0 0 2 -2v-11.459h-4v9.459h-37v-37h9.459v-4h-11.459zm14.438 4-5.4375 5.4394 9.5625 9.5606-9.5625 9.5625 5.4375 5.4375 9.5625-9.5606 9.5625 9.5606 5.4375-5.4375-9.5625-9.5625 9.5625-9.5606-5.4375-5.4394-9.5625 9.5625-9.5625-9.5625z" fill="#586e75"/>
 </g>
</svg>
