<?xml version="1.0" encoding="UTF-8" standalone="no"?>
<svg xmlns:rdf="http://www.w3.org/1999/02/22-rdf-syntax-ns#" xmlns="http://www.w3.org/2000/svg" height="75" width="75" version="1.1" xmlns:cc="http://creativecommons.org/ns#" xmlns:dc="http://purl.org/dc/elements/1.1/" viewBox="0 0 75.000002 75.000001">
 <g transform="translate(-47.667 -1055.6)">
  <path style="color-rendering:auto;text-decoration-color:#000000;color:#000000;isolation:auto;mix-blend-mode:normal;shape-rendering:auto;solid-color:#000000;block-progression:tb;text-decoration-line:none;text-decoration-style:solid;image-rendering:auto;white-space:normal;text-indent:0;text-transform:none" d="m85.285 1073.3c-0.9351-0.044-1.8151 0.437-2.2833 1.2461l-20 34.574c-0.9626 1.6649 0.2402 3.7454 2.1661 3.7461h40c1.9259-0.0007 3.1286-2.0812 2.166-3.7461l-20-34.574c-0.426-0.7361-1.198-1.2058-2.0488-1.2461zm-2.6739 9.6309h5.1543v5.5918c0 2.2108-0.08 4.2344-0.2402 6.0722-0.1599 1.8379-0.3599 3.6902-0.5996 5.5547h-3.4356c-0.2664-1.8645-0.4787-3.7168-0.6386-5.5547-0.1598-1.8645-0.2403-3.8881-0.2403-6.0722v-5.5918zm2.5567 20.016c0.9057 0 1.6647 0.3054 2.2773 0.918 0.6126 0.586 0.9199 1.3451 0.9199 2.2773 0 0.9323-0.3073 1.6914-0.9199 2.2774-0.6126 0.5859-1.3716 0.8789-2.2773 0.8789-0.879 0-1.6382-0.293-2.2774-0.8789-0.6127-0.586-0.918-1.3451-0.918-2.2774 0-0.9322 0.3053-1.6913 0.918-2.2773 0.6392-0.6126 1.3984-0.918 2.2774-0.918z" fill="#586e75"/>
 </g>
</svg>
