<svg xmlns="http://www.w3.org/2000/svg" viewBox="0 0 672 672"><path d="M383.7 206.5c-15.1-3.8-45.1-6.3-55.1-4.5-10.9 2-21.8 10.3-27.3 21l-2.8 5.5-.3 117.2L298 463h31.6c23.5 0 34.3-.4 42.2-1.6 44.2-6.5 74.2-32.7 86.7-75.9 5.2-18.1 6-24.9 6-53.5-.1-28.7-1.1-37-7.1-55-11.9-35.8-38.9-61.7-73.7-70.5zm286.4 101.8c-8.6-90.9-55.6-171.7-132.4-226.9-43.8-31.6-99-52.5-156.7-59.4-9.5-1.1-53.4-2.2-60-1.4-1.9.2-8.4.9-14.4 1.4-106.4 10.3-204.2 74.5-255 167.5C8.9 267.7 2.5 362.9 34.5 445c8.8 22.7 8.8 22.7 8.9 35 .2 18.8-1.2 22.1-22 54.3-8.7 13.3-16.8 26.5-18.1 29.4-9 19.6 1.9 43.9 23.1 51.4 4.9 1.7 8.3 1.9 27.8 1.9 73.1 0 131.2 7 203.9 24.4 46.7 11.2 88.5 13.4 133 7 106.9-15.3 199.7-80.7 247.1-174.3 15.3-30.2 24.5-59.4 30-94.6 2.6-16.9 3.5-53.3 1.9-71.2zM566.5 389c-8.7 42.7-26.6 77-54.5 105-15.4 15.4-26.9 23.7-47 33.8-24.5 12.3-47.7 18.9-75.5 21.2-8.7.7-49.1 1-122.5.8l-109.5-.3-7.6-3.6c-9.5-4.6-14.7-9.2-18.7-16.7-3.8-7-5.8-15.5-6.7-27.8-1.4-19 4.6-26.3 21.6-26.4 17.4 0 34.4-5.3 40.8-12.5 3.1-3.6 6.5-9.5 8.5-15 .7-2.1 1.2-43.8 1.6-137.5.5-125.6.7-134.9 2.4-140.5 9.1-30.4 31.8-50.4 61.8-54.5 9.4-1.3 118.6-.5 128.3.9 38.1 5.6 71.2 17.6 99.4 36.2 10.9 7.2 27.7 23 36.6 34.4 22.7 29.2 37.1 64.3 43.6 106.6 1.9 12 2.3 18.7 2.3 39.9 0 26.7-.7 35.6-4.9 56z"/></svg>