<svg width="62.372" height="63.81"><defs><radialGradient id="b" cx=".859" cy="-.129" r="1.283" gradientTransform="matrix(.813 0 0 1 -19.098 0)" gradientUnits="objectBoundingBox"><stop offset=".129" stop-color="#ffbd4f"/><stop offset=".186" stop-color="#ffac31"/><stop offset=".247" stop-color="#ff9d17"/><stop offset=".283" stop-color="#ff980e"/><stop offset=".403" stop-color="#ff563b"/><stop offset=".467" stop-color="#ff3750"/><stop offset=".71" stop-color="#f5156c"/><stop offset=".782" stop-color="#eb0878"/><stop offset=".86" stop-color="#e50080"/></radialGradient><radialGradient id="c" cx=".478" cy=".395" r="1.283" gradientTransform="matrix(.813 0 0 1 -19.169 0)" gradientUnits="objectBoundingBox"><stop offset=".3" stop-color="#960e18"/><stop offset=".351" stop-color="#b11927" stop-opacity=".741"/><stop offset=".435" stop-color="#db293d" stop-opacity=".341"/><stop offset=".497" stop-color="#f5334b" stop-opacity=".094"/><stop offset=".53" stop-color="#ff3750" stop-opacity="0"/></radialGradient><radialGradient id="d" cx=".5" cy="-.3" r="1.855" gradientTransform="matrix(1.698 0 0 1 299.255 0)" gradientUnits="objectBoundingBox"><stop offset=".132" stop-color="#fff44f"/><stop offset=".252" stop-color="#ffdc3e"/><stop offset=".506" stop-color="#ff9d12"/><stop offset=".526" stop-color="#ff980e"/></radialGradient><radialGradient id="e" cx=".195" cy="1.101" r="1.019" gradientTransform="matrix(1.096 0 0 1 22.269 0)" gradientUnits="objectBoundingBox"><stop offset=".353" stop-color="#3a8ee6"/><stop offset=".472" stop-color="#5c79f0"/><stop offset=".669" stop-color="#9059ff"/><stop offset="1" stop-color="#c139e6"/></radialGradient><radialGradient id="f" cx=".582" cy=".366" r=".54" gradientTransform="matrix(1.066 -.235 .301 1.138 83.149 -23.195)" gradientUnits="objectBoundingBox"><stop offset=".206" stop-color="#9059ff" stop-opacity="0"/><stop offset=".278" stop-color="#8c4ff3" stop-opacity=".063"/><stop offset=".747" stop-color="#7716a8" stop-opacity=".451"/><stop offset=".975" stop-color="#6e008b" stop-opacity=".6"/></radialGradient><radialGradient id="g" cx="2.081" cy="-1.039" r="2.922" gradientTransform="translate(3.128)" gradientUnits="objectBoundingBox"><stop offset="0" stop-color="#ffe226"/><stop offset=".121" stop-color="#ffdb27"/><stop offset=".295" stop-color="#ffc82a"/><stop offset=".502" stop-color="#ffa930"/><stop offset=".732" stop-color="#ff7e37"/><stop offset=".792" stop-color="#ff7139"/></radialGradient><radialGradient id="h" cx=".793" cy="-.409" r="1.938" gradientTransform="matrix(.84 0 0 1 -17.512 0)" gradientUnits="objectBoundingBox"><stop offset=".113" stop-color="#fff44f"/><stop offset=".456" stop-color="#ff980e"/><stop offset=".622" stop-color="#ff5634"/><stop offset=".716" stop-color="#ff3647"/><stop offset=".904" stop-color="#e31587"/></radialGradient><radialGradient id="i" cx=".063" cy="-.103" r="1.651" gradientTransform="matrix(.222 .994 -1.378 .069 -474.401 168.295)" gradientUnits="objectBoundingBox"><stop offset="0" stop-color="#fff44f"/><stop offset=".06" stop-color="#ffe847"/><stop offset=".168" stop-color="#ffc830"/><stop offset=".304" stop-color="#ff980e"/><stop offset=".356" stop-color="#ff8b16"/><stop offset=".455" stop-color="#ff672a"/><stop offset=".57" stop-color="#ff3647"/><stop offset=".737" stop-color="#e31587"/></radialGradient><radialGradient id="j" cx=".154" cy="-.427" r="2.387" gradientTransform="matrix(.981 0 0 1 -4.739 0)" gradientUnits="objectBoundingBox"><stop offset=".137" stop-color="#fff44f"/><stop offset=".48" stop-color="#ff980e"/><stop offset=".592" stop-color="#ff5634"/><stop offset=".655" stop-color="#ff3647"/><stop offset=".904" stop-color="#e31587"/></radialGradient><radialGradient id="k" cx="1.554" cy="-.446" r="3.128" gradientTransform="matrix(.896 0 0 1 -28.779 0)" gradientUnits="objectBoundingBox"><stop offset=".094" stop-color="#fff44f"/><stop offset=".231" stop-color="#ffe141"/><stop offset=".509" stop-color="#ffaf1e"/><stop offset=".626" stop-color="#ff980e"/></radialGradient><linearGradient id="a" x1=".85" y1=".155" x2=".019" y2=".931" gradientUnits="objectBoundingBox"><stop offset=".048" stop-color="#fff44f"/><stop offset=".111" stop-color="#ffe847"/><stop offset=".225" stop-color="#ffc830"/><stop offset=".368" stop-color="#ff980e"/><stop offset=".401" stop-color="#ff8b16"/><stop offset=".462" stop-color="#ff672a"/><stop offset=".534" stop-color="#ff3647"/><stop offset=".705" stop-color="#e31587"/></linearGradient><linearGradient id="l" x1=".84" y1=".151" x2=".133" y2=".835" gradientUnits="objectBoundingBox"><stop offset=".167" stop-color="#fff44f" stop-opacity=".8"/><stop offset=".266" stop-color="#fff44f" stop-opacity=".635"/><stop offset=".489" stop-color="#fff44f" stop-opacity=".216"/><stop offset=".6" stop-color="#fff44f" stop-opacity="0"/></linearGradient></defs><path d="M65.115 21.406c-1.357-3.233-4.109-6.724-6.264-7.828a31.918 31.918 0 013.162 9.387l.006.052C58.488 14.3 52.5 10.785 47.612 3.131c-.247-.387-.495-.775-.736-1.184a9.71 9.71 0 01-.344-.638 5.594 5.594 0 01-.465-1.225A.08.08 0 0046 0a.112.112 0 00-.059 0l-.015.009-.026.016.011-.025a22.534 22.534 0 00-10.749 17.18 15.707 15.707 0 00-8.593 3.28 9.329 9.329 0 00-.806-.6 14.2 14.2 0 01-.088-7.559 23.1 23.1 0 00-7.516 5.753h-.015c-1.237-1.554-1.15-6.676-1.08-7.746a5.6 5.6 0 00-1.043.548 22.682 22.682 0 00-3.052 2.589 27.068 27.068 0 00-2.919 3.469 26 26 0 00-4.189 9.37l-.042.2a48.121 48.121 0 00-.307 1.931.646.646 0 01-.007.068A29.2 29.2 0 005 32.749v.16a31.251 31.251 0 0062 5.23c.052-.4.1-.794.142-1.2a31.523 31.523 0 00-2.025-15.535zM29.126 45.614c.146.069.283.144.433.211l.022.014q-.228-.109-.455-.225zm7.153-18.653zm25.742-3.937v-.03l.006.033z" transform="translate(-5)" fill="url(#a)"/><path d="M65.115 24.845c-1.357-3.233-4.109-6.724-6.264-7.828a31.918 31.918 0 013.162 9.383v.03l.006.033a27.76 27.76 0 01-.972 20.872c-3.579 7.605-12.241 15.4-25.8 15.021C20.6 61.949 7.693 51.181 5.281 37.079c-.439-2.224 0-3.351.221-5.159A22.83 22.83 0 005 36.187v.16a31.251 31.251 0 0062 5.23c.052-.4.1-.794.142-1.2a31.523 31.523 0 00-2.025-15.535z" transform="translate(-5 -3.439)" fill="url(#b)"/><path d="M65.115 24.845c-1.357-3.233-4.109-6.724-6.264-7.828a31.918 31.918 0 013.162 9.383v.03l.006.033a27.76 27.76 0 01-.972 20.872c-3.579 7.605-12.241 15.4-25.8 15.021C20.6 61.949 7.693 51.181 5.281 37.079c-.439-2.224 0-3.351.221-5.159A22.83 22.83 0 005 36.187v.16a31.251 31.251 0 0062 5.23c.052-.4.1-.794.142-1.2a31.523 31.523 0 00-2.025-15.535z" transform="translate(-5 -3.439)" fill="url(#c)"/><path d="M57.217 25.042c.068.047.131.094.194.141a16.856 16.856 0 00-2.9-3.746C44.806 11.824 51.967.593 53.175.022L53.187 0a22.534 22.534 0 00-10.749 17.18c.364-.025.725-.055 1.1-.055a15.785 15.785 0 0113.682 7.913z" transform="translate(-12.276 -.001)" fill="url(#d)"/><path d="M40.43 31.3c-.052.769-2.8 3.422-3.755 3.422-8.879 0-10.32 5.32-10.32 5.32.393 4.48 3.545 8.169 7.355 10.121.174.089.35.17.527.249q.458.2.917.372a14 14 0 004.063.776c15.563.723 18.578-18.432 7.347-23.991a10.86 10.86 0 017.529 1.811 15.785 15.785 0 00-13.682-7.913c-.371 0-.733.03-1.1.055a15.707 15.707 0 00-8.593 3.28c.476.4 1.014.932 2.145 2.037 2.119 2.067 7.553 4.209 7.565 4.46z" transform="translate(-9.15 -4.338)" fill="url(#e)"/><path d="M40.43 31.3c-.052.769-2.8 3.422-3.755 3.422-8.879 0-10.32 5.32-10.32 5.32.393 4.48 3.545 8.169 7.355 10.121.174.089.35.17.527.249q.458.2.917.372a14 14 0 004.063.776c15.563.723 18.578-18.432 7.347-23.991a10.86 10.86 0 017.529 1.811 15.785 15.785 0 00-13.682-7.913c-.371 0-.733.03-1.1.055a15.707 15.707 0 00-8.593 3.28c.476.4 1.014.932 2.145 2.037 2.119 2.067 7.553 4.209 7.565 4.46z" transform="translate(-9.15 -4.338)" fill="url(#f)"/><path d="M28.286 22.55c.253.16.462.3.645.424a14.2 14.2 0 01-.088-7.559 23.1 23.1 0 00-7.516 5.753c.152 0 4.682-.085 6.959 1.382z" transform="translate(-8.173 -3.115)" fill="url(#g)"/><path d="M5.317 36.252c2.41 14.1 15.315 24.87 29.965 25.281 13.559.38 22.222-7.416 25.8-15.021a27.76 27.76 0 00.972-20.872v-.03-.03l.006.052c1.108 7.163-2.571 14.1-8.322 18.8l-.018.04c-11.205 9.038-21.928 5.453-24.1 3.99q-.227-.108-.454-.224c-6.533-3.093-9.232-8.988-8.654-14.044a8.025 8.025 0 01-7.4-4.608 11.876 11.876 0 0111.48-.456 15.688 15.688 0 0011.724.456c-.012-.251-5.446-2.394-7.565-4.46-1.132-1.105-1.669-1.637-2.145-2.037a9.326 9.326 0 00-.806-.6 43.887 43.887 0 00-.645-.424c-2.278-1.467-6.807-1.386-6.957-1.382h-.015c-1.237-1.554-1.15-6.676-1.08-7.746a5.6 5.6 0 00-1.043.548 22.682 22.682 0 00-3.052 2.589 27.07 27.07 0 00-2.931 3.461A26 26 0 005.9 28.894c-.015.063-1.125 4.867-.578 7.358z" transform="translate(-5.032 -2.612)" fill="url(#h)"/><path d="M56.216 21.436a16.855 16.855 0 012.9 3.75c.172.128.332.256.468.38 7.079 6.463 3.37 15.6 3.094 16.25C68.428 37.124 72.1 30.184 71 23.021c-3.533-8.721-9.519-12.236-14.409-19.89-.247-.387-.495-.775-.736-1.184a9.71 9.71 0 01-.344-.638 5.594 5.594 0 01-.465-1.225.08.08 0 00-.071-.084.112.112 0 00-.059 0l-.015.009-.023.012c-1.208.567-8.369 11.8 1.337 21.412z" transform="translate(-13.979)" fill="url(#i)"/><path d="M56.523 31.423a7.43 7.43 0 00-.468-.38c-.064-.047-.126-.094-.194-.141a10.86 10.86 0 00-7.529-1.811c11.231 5.562 8.218 24.709-7.346 23.991a14 14 0 01-4.063-.776q-.458-.17-.917-.372c-.176-.08-.353-.16-.527-.249l.022.014c2.17 1.467 12.89 5.053 24.1-3.99l.018-.04c.28-.646 3.989-9.785-3.094-16.246z" transform="translate(-10.924 -5.86)" fill="url(#j)"/><path d="M24.152 42.1s1.441-5.32 10.32-5.32c.96 0 3.706-2.653 3.755-3.422A15.688 15.688 0 0126.5 32.9a11.876 11.876 0 00-11.48.456 8.025 8.025 0 007.4 4.608c-.578 5.057 2.12 10.952 8.654 14.044.146.069.283.144.433.211-3.813-1.951-6.962-5.641-7.355-10.12z" transform="translate(-6.948 -6.393)" fill="url(#k)"/><path d="M65.115 21.406c-1.357-3.233-4.109-6.724-6.264-7.828a31.918 31.918 0 013.162 9.387l.006.052C58.488 14.3 52.5 10.785 47.612 3.131c-.247-.387-.495-.775-.736-1.184a9.71 9.71 0 01-.344-.638 5.594 5.594 0 01-.465-1.225A.08.08 0 0046 0a.112.112 0 00-.059 0l-.015.009-.026.016.011-.025a22.534 22.534 0 00-10.749 17.18c.364-.025.725-.055 1.1-.055a15.785 15.785 0 0113.682 7.913 10.86 10.86 0 00-7.529-1.811c11.231 5.562 8.218 24.714-7.347 23.991A14 14 0 0131 46.445q-.458-.17-.917-.372c-.176-.08-.353-.16-.527-.249l.022.014q-.227-.108-.454-.224c.146.069.283.144.433.211C25.746 43.873 22.6 40.183 22.2 35.7c0 0 1.441-5.32 10.32-5.32.96 0 3.706-2.653 3.755-3.422-.012-.251-5.446-2.394-7.565-4.46-1.132-1.105-1.669-1.637-2.145-2.037a9.327 9.327 0 00-.806-.6 14.2 14.2 0 01-.088-7.559 23.1 23.1 0 00-7.516 5.753h-.015c-1.237-1.554-1.15-6.676-1.08-7.746a5.6 5.6 0 00-1.043.548 22.682 22.682 0 00-3.052 2.589 27.067 27.067 0 00-2.919 3.469 26 26 0 00-4.189 9.37l-.042.2a52.09 52.09 0 00-.36 1.951A35.649 35.649 0 005 32.749v.16a31.251 31.251 0 0062 5.23c.052-.4.1-.794.142-1.2a31.523 31.523 0 00-2.025-15.535zm-3.1 1.589l.006.033z" transform="translate(-5)" fill="url(#l)"/></svg>