<?xml version="1.0" standalone="no"?>
<!DOCTYPE svg PUBLIC "-//W3C//DTD SVG 20010904//EN"
 "http://www.w3.org/TR/2001/REC-SVG-20010904/DTD/svg10.dtd">
<svg version="1.0" xmlns="http://www.w3.org/2000/svg"
 width="672.000000pt" height="672.000000pt" viewBox="0 0 672.000000 672.000000"
 preserveAspectRatio="xMidYMid meet">
<g transform="translate(0.000000,672.000000) scale(0.100000,-0.100000)"
fill="#000000" stroke="none">
<path d="M3210 6514 c-19 -2 -84 -9 -144 -14 -1064 -103 -2042 -745 -2550
-1675 -427 -782 -491 -1734 -171 -2555 88 -227 88 -227 89 -350 2 -188 -12
-221 -220 -543 -87 -133 -168 -265 -181 -294 -90 -196 19 -439 231 -514 49
-17 83 -19 278 -19 731 0 1312 -70 2039 -244 467 -112 885 -134 1330 -70 1069
153 1997 807 2471 1743 153 302 245 594 300 946 26 169 35 533 19 712 -86 909
-556 1717 -1324 2269 -438 316 -990 525 -1567 594 -95 11 -534 22 -600 14z
m685 -953 c381 -56 712 -176 994 -362 109 -72 277 -230 366 -344 227 -292 371
-643 436 -1066 19 -120 23 -187 23 -399 0 -267 -7 -356 -49 -560 -87 -427
-266 -770 -545 -1050 -154 -154 -269 -237 -470 -338 -245 -123 -477 -189 -755
-212 -87 -7 -491 -10 -1225 -8 l-1095 3 -76 36 c-95 46 -147 92 -187 167 -38
70 -58 155 -67 278 -14 190 46 263 216 264 174 0 344 53 408 125 31 36 65 95
85 150 7 21 12 438 16 1375 5 1256 7 1349 24 1405 91 304 318 504 618 545 94
13 1186 5 1283 -9z"/>
<path d="M3286 4700 c-109 -20 -218 -103 -273 -210 l-28 -55 -3 -1172 -2
-1173 316 0 c235 0 343 4 422 16 442 65 742 327 867 759 52 181 60 249 60 535
-1 287 -11 370 -71 550 -119 358 -389 617 -737 705 -151 38 -451 63 -551 45z"/>
</g>
</svg>
