<?xml version="1.0" standalone="no"?>
<!DOCTYPE svg PUBLIC "-//W3C//DTD SVG 20010904//EN"
 "http://www.w3.org/TR/2001/REC-SVG-20010904/DTD/svg10.dtd">
<svg version="1.0" xmlns="http://www.w3.org/2000/svg"
 width="700.000000pt" height="700.000000pt" viewBox="0 0 700.000000 700.000000"
 preserveAspectRatio="xMidYMid meet">
<g transform="translate(0.000000,700.000000) scale(0.100000,-0.100000)"
fill="#000000" stroke="none">
<path d="M3529 6606 c-2 -2 -42 -6 -89 -9 -77 -5 -203 -21 -262 -32 -13 -3
-50 -10 -83 -16 -124 -22 -449 -118 -540 -159 -11 -5 -58 -25 -105 -45 -137
-58 -441 -228 -515 -287 -5 -4 -53 -40 -105 -79 -277 -208 -534 -483 -723
-773 -146 -223 -256 -450 -349 -715 -33 -95 -91 -316 -107 -406 -18 -103 -19
-112 -26 -171 -4 -33 -9 -68 -11 -79 -6 -31 -17 -241 -17 -330 -1 -84 11 -298
18 -350 3 -16 7 -50 10 -75 2 -25 7 -56 10 -70 2 -14 7 -38 10 -55 34 -213
122 -500 217 -714 l24 -54 -22 -46 c-33 -66 -145 -307 -197 -421 -14 -30 -46
-100 -72 -155 -54 -116 -102 -217 -155 -330 -20 -44 -58 -124 -84 -179 -25
-54 -46 -99 -46 -101 0 -2 -28 -61 -61 -132 -71 -149 -78 -192 -39 -263 31
-57 94 -88 158 -78 15 3 279 82 587 177 308 94 568 174 577 176 9 2 98 29 197
59 99 31 185 56 191 56 6 0 30 -13 53 -29 114 -77 367 -215 482 -263 208 -85
523 -168 734 -193 30 -4 62 -8 72 -10 118 -23 578 -23 709 0 14 2 48 7 75 10
72 9 288 52 375 76 173 48 347 112 514 189 70 32 302 157 321 172 6 5 48 34
95 65 230 152 395 298 625 553 75 83 215 277 296 412 178 292 322 653 385 963
25 126 29 148 40 230 3 28 8 57 9 67 8 39 18 243 18 353 1 370 -67 745 -198
1096 -35 94 -55 139 -121 274 -52 107 -68 136 -129 240 -51 87 -195 292 -240
341 -5 7 -26 31 -45 55 -201 250 -543 532 -855 706 -93 52 -289 143 -306 143
-6 0 -25 6 -42 14 -61 26 -222 76 -357 111 -3 0 -21 4 -40 8 -19 4 -46 9 -60
12 -71 16 -192 36 -245 41 -33 3 -71 8 -85 11 -30 5 -465 14 -471 9z m491
-907 c64 -9 75 -11 154 -24 69 -12 218 -65 301 -106 239 -121 407 -315 480
-556 23 -75 30 -146 29 -298 0 -176 -9 -237 -55 -375 -20 -63 -104 -240 -117
-250 -4 -3 -19 -24 -34 -47 -15 -23 -64 -80 -108 -127 -44 -47 -80 -88 -80
-91 0 -20 26 -47 72 -75 121 -74 262 -248 324 -400 50 -123 64 -218 60 -395
-5 -180 -22 -286 -68 -414 -65 -180 -158 -321 -313 -476 -285 -286 -704 -467
-1085 -469 -160 -1 -240 10 -360 52 -71 24 -153 64 -230 111 -19 11 -40 21
-47 21 -6 0 -33 -23 -59 -51 -96 -99 -214 -152 -344 -152 -184 1 -282 40 -330
133 -57 113 -47 202 59 525 151 456 301 960 406 1360 20 77 47 181 60 230 13
50 26 101 29 115 2 14 26 111 51 215 26 105 48 197 50 205 2 8 15 67 29 130
15 63 29 128 32 143 2 16 13 66 23 110 39 166 42 206 19 221 -14 8 -41 -1
-137 -48 -110 -55 -121 -58 -148 -47 -89 36 -116 250 -56 433 24 75 91 168
146 205 61 41 248 99 447 139 79 16 86 17 165 29 28 4 61 9 75 11 14 2 63 7
110 10 47 4 86 7 88 9 7 6 305 1 362 -6z"/>
<path d="M3806 5076 c-15 -12 -52 -122 -81 -241 -3 -11 -18 -69 -35 -130 -16
-60 -32 -119 -34 -130 -3 -11 -26 -110 -51 -220 -26 -110 -49 -211 -52 -225
-3 -14 -6 -29 -7 -35 -33 -137 -5 -171 107 -128 355 136 582 411 580 703 -1
42 -8 94 -17 119 -36 99 -139 198 -271 261 -79 38 -115 44 -139 26z"/>
<path d="M3609 3460 c-162 -42 -224 -95 -242 -206 -3 -16 -13 -60 -22 -99 -9
-38 -18 -79 -20 -90 -2 -11 -10 -47 -18 -80 -9 -33 -18 -71 -20 -85 -3 -14
-13 -54 -22 -90 -9 -36 -18 -72 -20 -81 -2 -8 -17 -69 -34 -134 -36 -139 -38
-164 -11 -198 31 -39 147 -77 245 -80 109 -4 276 42 379 104 182 109 294 260
347 466 67 263 -27 477 -251 568 -63 25 -223 28 -311 5z"/>
</g>
</svg>
