<svg xmlns="http://www.w3.org/2000/svg" width="42" height="39"><path fill="#1552b4" d="M26.43 12.94c-1.34-1.18-3-1.67-5.6-1.67a2.36 2.36 0 00-2.36 2.36v13.92h3.09c4.75 0 7.34-2.88 7.34-8.16 0-2.84-.81-4.99-2.47-6.45z"/><path fill="#1552b4" d="M21.3 0C10 0 .88 8.79.88 19.63a18.91 18.91 0 001.55 7.52 3.83 3.83 0 01-.31 3.58L.38 33.42a2.4 2.4 0 002 3.7h1.5A48.85 48.85 0 0116 38.61a21.17 21.17 0 005.26.66c11.28 0 20.42-8.79 20.42-19.64S32.58 0 21.3 0zm8.83 30.9a12.63 12.63 0 01-7.38 2.1H12.04a8.84 8.84 0 01-.91 0 6.52 6.52 0 01-.79 0h-.18a1.62 1.62 0 01-.9-.26c-1.07-.46-1.53-1.45-1.53-3.14v-.17a1.06 1.06 0 011.06-1.06c2.27 0 3.28-.59 3.46-2.4V10.44a4.58 4.58 0 01.43-1.92 4.46 4.46 0 014.08-2.65h5.1a14.76 14.76 0 018.68 2.44c3.17 2.31 5 6.45 5 11.24-.02 5.07-2.04 9.09-5.41 11.35z"/></svg>